<svg width="23" height="24" viewBox="0 0 23 24" fill="none" xmlns="http://www.w3.org/2000/svg">
    <path fill-rule="evenodd" clip-rule="evenodd" d="M10.1857 0C9.8913 0.000148723 9.60275 0.0778247 9.35237 0.224329C9.10199 0.370832 8.89967 0.580379 8.76807 0.8295L7.62002 3H2.25713C1.83657 3 1.43324 3.15804 1.13586 3.43934C0.838483 3.72064 0.671417 4.10218 0.671417 4.5C0.671417 4.89782 0.838483 5.27936 1.13586 5.56066C1.43324 5.84196 1.83657 6 2.25713 6V21C2.25713 21.7956 2.59126 22.5587 3.18602 23.1213C3.78078 23.6839 4.58744 24 5.42856 24H18.1143C18.9554 24 19.7621 23.6839 20.3568 23.1213C20.9516 22.5587 21.2857 21.7956 21.2857 21V6C21.7063 6 22.1096 5.84196 22.407 5.56066C22.7044 5.27936 22.8714 4.89782 22.8714 4.5C22.8714 4.10218 22.7044 3.72064 22.407 3.43934C22.1096 3.15804 21.7063 3 21.2857 3H15.9228L14.7748 0.8295C14.6432 0.580379 14.4408 0.370832 14.1905 0.224329C13.9401 0.0778247 13.6515 0.000148723 13.3571 0H10.1857ZM7.01427 9C7.01427 8.60218 7.18134 8.22064 7.47872 7.93934C7.7761 7.65804 8.17943 7.5 8.59999 7.5C9.02055 7.5 9.42388 7.65804 9.72126 7.93934C10.0186 8.22064 10.1857 8.60218 10.1857 9V18C10.1857 18.3978 10.0186 18.7794 9.72126 19.0607C9.42388 19.342 9.02055 19.5 8.59999 19.5C8.17943 19.5 7.7761 19.342 7.47872 19.0607C7.18134 18.7794 7.01427 18.3978 7.01427 18V9ZM14.9428 7.5C14.5223 7.5 14.119 7.65804 13.8216 7.93934C13.5242 8.22064 13.3571 8.60218 13.3571 9V18C13.3571 18.3978 13.5242 18.7794 13.8216 19.0607C14.119 19.342 14.5223 19.5 14.9428 19.5C15.3634 19.5 15.7667 19.342 16.0641 19.0607C16.3615 18.7794 16.5286 18.3978 16.5286 18V9C16.5286 8.60218 16.3615 8.22064 16.0641 7.93934C15.7667 7.65804 15.3634 7.5 14.9428 7.5Z" fill="#5590C1"/>
</svg>
